<?xml version="1.0" standalone="no"?>
<!DOCTYPE svg PUBLIC "-//W3C//DTD SVG 20010904//EN"
 "http://www.w3.org/TR/2001/REC-SVG-20010904/DTD/svg10.dtd">
<svg version="1.0" xmlns="http://www.w3.org/2000/svg"
 width="667.000000pt" height="667.000000pt" viewBox="0 0 667.000000 667.000000"
 preserveAspectRatio="xMidYMid meet">
<metadata>
Created by potrace 1.14, written by Peter Selinger 2001-2017
</metadata>
<g transform="translate(0.000000,667.000000) scale(0.100000,-0.100000)"
fill="#000000" stroke="none">
<path d="M3030 5559 c-188 -27 -439 -93 -512 -134 -15 -9 -30 -16 -33 -15 -13
1 -235 -104 -260 -123 -5 -4 -36 -23 -67 -42 -32 -18 -85 -54 -118 -79 -33
-25 -65 -46 -70 -46 -6 0 -10 -4 -10 -8 0 -5 -15 -19 -32 -32 l-33 -25 -300 0
-300 -1 -1 -409 c-1 -390 -2 -412 -21 -455 -36 -80 -90 -248 -108 -340 -3 -14
-8 -36 -10 -50 -3 -14 -8 -37 -10 -52 -3 -16 -7 -40 -10 -55 -14 -75 -19 -154
-19 -328 0 -171 4 -247 19 -340 3 -16 7 -41 9 -55 4 -24 16 -77 38 -170 12
-49 44 -153 57 -185 44 -106 52 -139 52 -204 l0 -71 30 0 c26 0 64 -28 64 -48
0 -4 4 -13 9 -20 6 -11 1 -12 -25 -7 -38 7 -57 9 -149 20 -36 4 -76 9 -90 11
-93 11 -266 18 -452 18 -209 0 -218 -1 -247 -22 -17 -12 -32 -22 -35 -22 -3 0
-65 -36 -140 -80 -74 -44 -140 -80 -145 -80 -6 0 -11 -4 -11 -9 0 -5 -8 -11
-17 -14 -10 -3 -31 -14 -48 -24 -17 -10 -31 -18 -32 -19 -2 0 9 -39 23 -85 14
-46 27 -91 29 -99 2 -8 16 -53 31 -100 15 -47 29 -90 30 -97 1 -6 7 -28 14
-47 9 -27 8 -40 -1 -58 -7 -13 -12 -25 -11 -28 3 -12 -11 -57 -24 -78 -8 -12
-12 -22 -9 -22 2 0 0 -12 -5 -26 -7 -18 -7 -39 1 -67 14 -50 17 -67 18 -87 3
-36 15 -41 67 -26 27 8 60 17 74 20 14 2 68 14 120 26 116 26 125 28 170 35
20 3 47 8 60 10 73 15 128 23 195 30 33 4 62 8 65 10 3 2 43 6 89 10 45 4 93
8 104 11 119 23 713 22 897 -1 19 -2 58 -7 85 -11 28 -3 64 -8 80 -10 17 -1
30 -3 30 -4 0 -1 14 -4 30 -6 31 -5 154 -30 215 -44 113 -27 264 -75 367 -118
40 -16 75 -27 78 -24 3 3 5 1 5 -5 0 -6 13 -16 29 -21 27 -10 45 -44 55 -102
1 -3 12 -26 24 -52 64 -129 220 -203 420 -197 42 1 95 6 117 12 22 5 45 10 50
11 98 20 234 179 237 275 1 17 6 35 12 40 21 17 338 124 398 134 13 2 30 6 38
10 13 5 51 15 85 22 12 3 208 43 245 50 14 3 47 7 75 10 27 3 57 7 65 10 25 7
168 22 290 30 30 2 55 4 55 5 0 1 83 2 185 2 169 1 353 -6 455 -17 22 -2 63
-7 90 -10 28 -3 68 -8 90 -11 22 -3 51 -7 65 -9 32 -4 192 -33 250 -45 25 -6
56 -13 70 -16 14 -2 33 -7 42 -10 9 -3 25 -6 35 -8 23 -5 183 -52 204 -61 18
-7 24 6 59 116 19 62 20 67 4 104 -39 95 -55 162 -43 192 6 15 12 35 14 44 4
19 57 192 91 299 29 89 29 96 7 103 -24 8 -77 40 -81 50 -2 4 -8 7 -13 7 -5 0
-61 32 -125 70 -64 39 -118 70 -120 70 -2 0 -23 12 -47 27 l-43 28 -220 -1
c-201 -1 -390 -9 -439 -18 -11 -2 -51 -7 -88 -11 -37 -3 -78 -8 -90 -11 -12
-2 -41 -6 -64 -8 l-41 -4 12 30 c15 34 37 50 63 46 15 -3 18 6 19 57 0 33 8
76 17 95 13 29 25 64 32 90 1 3 7 19 14 35 7 17 14 35 15 40 1 6 4 15 7 20 4
6 10 24 14 40 4 17 9 39 12 50 3 11 9 43 13 70 4 28 11 62 14 78 6 27 9 43 20
107 14 79 16 99 23 190 10 148 5 369 -11 460 -3 14 -7 45 -10 70 -15 114 -75
325 -134 465 l-25 60 -1 395 -1 395 -300 0 -300 1 -100 75 c-128 97 -214 150
-345 214 -107 53 -283 124 -305 125 -3 0 -18 6 -33 14 -15 8 -44 17 -62 19
-19 3 -35 6 -35 7 0 2 3 1 -135 28 -160 31 -190 34 -400 37 -146 2 -226 -2
-320 -16z"/>
</g>
</svg>
